<?xml version="1.0" encoding="UTF-8" standalone="no"?>
<!DOCTYPE svg PUBLIC "-//W3C//DTD SVG 1.1//EN" "http://www.w3.org/Graphics/SVG/1.1/DTD/svg11.dtd">
<svg width="100%" height="100%" viewBox="0 0 244 40" version="1.1" xmlns="http://www.w3.org/2000/svg" xmlns:xlink="http://www.w3.org/1999/xlink" xml:space="preserve" xmlns:serif="http://www.serif.com/" style="fill-rule:evenodd;clip-rule:evenodd;stroke-linejoin:round;stroke-miterlimit:2;">
    <g>
        <clipPath id="_clip1">
            <rect x="0" y="0" width="243.122" height="40"/>
        </clipPath>
        <g clip-path="url(#_clip1)">
            <path d="M15.797,40C12.697,40 9.725,39.584 6.869,38.763C4.013,37.93 1.723,36.855 -0.011,35.536L3.03,28.794C4.649,29.974 6.603,30.945 8.881,31.697C11.159,32.449 13.472,32.83 15.785,32.83C17.554,32.83 18.977,32.645 20.064,32.275C21.151,31.905 21.949,31.419 22.469,30.807C22.989,30.194 23.244,29.488 23.244,28.679C23.244,27.65 22.839,26.829 22.03,26.216C21.22,25.603 20.145,25.105 18.803,24.724C17.462,24.342 15.993,23.972 14.409,23.614C12.825,23.267 11.229,22.839 9.633,22.342C8.026,21.845 6.557,21.185 5.215,20.353C3.874,19.52 2.799,18.433 2.012,17.092C1.214,15.75 0.821,14.062 0.821,12.038C0.821,9.829 1.411,7.817 2.59,5.99C3.77,4.163 5.562,2.718 7.979,1.631C10.396,0.544 13.426,0 17.069,0C19.497,0 21.902,0.289 24.273,0.879C26.644,1.469 28.725,2.313 30.483,3.423L27.661,10.165C25.927,9.17 24.146,8.43 22.307,7.921C20.468,7.424 18.699,7.181 16.999,7.181C15.299,7.181 13.807,7.378 12.744,7.759C11.68,8.141 10.893,8.673 10.396,9.332C9.899,9.991 9.645,10.731 9.645,11.541C9.645,12.57 10.049,13.403 10.859,14.027C11.668,14.652 12.732,15.137 14.062,15.496C15.392,15.843 16.86,16.201 18.479,16.548C20.098,16.895 21.706,17.334 23.29,17.843C24.874,18.364 26.331,19.011 27.65,19.809C28.98,20.607 30.055,21.671 30.876,23.012C31.709,24.354 32.113,26.019 32.113,28.008C32.113,30.182 31.512,32.171 30.321,33.975C29.118,35.779 27.314,37.236 24.874,38.335C22.446,39.445 19.404,39.988 15.762,39.988L15.797,40Z" style="fill-rule:nonzero;"/>
            <path d="M52.917,39.78C49.783,39.78 46.996,39.121 44.544,37.791C42.093,36.461 40.173,34.657 38.774,32.345C37.375,30.043 36.669,27.418 36.669,24.47C36.669,21.521 37.363,18.849 38.774,16.537C40.173,14.235 42.093,12.431 44.544,11.125C46.996,9.818 49.783,9.159 52.917,9.159C56.051,9.159 58.907,9.818 61.37,11.125C63.833,12.431 65.776,14.235 67.175,16.537C68.575,18.838 69.28,21.486 69.28,24.47C69.28,27.453 68.575,30.09 67.175,32.368C65.776,34.657 63.845,36.461 61.37,37.78C58.907,39.11 56.086,39.769 52.917,39.769L52.917,39.78ZM52.917,32.703C54.386,32.703 55.692,32.379 56.814,31.732C57.936,31.084 58.838,30.136 59.52,28.887C60.202,27.638 60.538,26.158 60.538,24.47C60.538,22.781 60.202,21.266 59.52,20.052C58.838,18.838 57.936,17.913 56.814,17.265C55.692,16.617 54.409,16.294 52.975,16.294C51.541,16.294 50.246,16.617 49.112,17.265C47.968,17.913 47.054,18.838 46.383,20.052C45.701,21.266 45.366,22.747 45.366,24.47C45.366,26.192 45.701,27.638 46.383,28.887C47.066,30.136 47.979,31.084 49.112,31.732C50.257,32.379 51.529,32.703 52.928,32.703L52.917,32.703Z" style="fill-rule:nonzero;"/>
            <rect x="75.016" y="0.659" width="8.615" height="38.67" style="fill-rule:nonzero;"/>
            <path d="M103.024,39.78C100.515,39.78 98.306,39.306 96.398,38.346C94.478,37.386 92.987,35.918 91.923,33.929C90.859,31.94 90.315,29.43 90.315,26.412L90.315,9.621L98.93,9.621L98.93,25.094C98.93,27.603 99.451,29.43 100.503,30.587C101.555,31.743 103.036,32.322 104.955,32.322C106.285,32.322 107.465,32.032 108.494,31.443C109.523,30.853 110.344,29.974 110.957,28.794C111.57,27.615 111.871,26.146 111.871,24.377L111.871,9.621L120.428,9.621L120.428,39.341L112.252,39.341L112.252,31.107L113.744,33.536C112.715,35.594 111.235,37.155 109.326,38.208C107.407,39.26 105.314,39.78 103.024,39.78Z" style="fill-rule:nonzero;"/>
            <path d="M138.445,39.78C135.901,39.78 133.472,39.48 131.148,38.867C128.823,38.254 126.973,37.491 125.574,36.577L128.396,30.448C129.795,31.258 131.425,31.928 133.287,32.46C135.149,32.992 136.976,33.258 138.78,33.258C140.769,33.258 142.18,33.015 143.001,32.541C143.834,32.067 144.238,31.396 144.238,30.552C144.238,29.858 143.915,29.326 143.267,28.98C142.619,28.633 141.775,28.367 140.723,28.182C139.671,27.997 138.503,27.811 137.219,27.627C135.924,27.442 134.652,27.187 133.38,26.852C132.108,26.516 130.928,26.054 129.841,25.441C128.754,24.828 127.887,23.995 127.239,22.931C126.592,21.868 126.268,20.48 126.268,18.792C126.268,16.918 126.823,15.253 127.921,13.796C129.032,12.339 130.593,11.206 132.616,10.396C134.64,9.587 137.092,9.182 139.96,9.182C142.018,9.182 144.088,9.413 146.17,9.876C148.251,10.338 150.009,10.974 151.443,11.784L148.517,17.913C147.118,17.103 145.695,16.537 144.238,16.201C142.781,15.866 141.394,15.704 140.064,15.704C138.075,15.704 136.641,15.958 135.75,16.479C134.871,16.999 134.42,17.658 134.42,18.468C134.42,19.208 134.756,19.763 135.415,20.156C136.074,20.538 136.941,20.827 138.017,21.012C139.081,21.197 140.26,21.382 141.555,21.567C142.839,21.752 144.111,22.006 145.372,22.342C146.621,22.677 147.788,23.14 148.876,23.753C149.963,24.365 150.83,25.198 151.477,26.262C152.125,27.326 152.449,28.713 152.449,30.402C152.449,32.206 151.894,33.813 150.795,35.236C149.685,36.658 148.101,37.768 146.019,38.578C143.938,39.387 141.405,39.792 138.422,39.792L138.445,39.78Z" style="fill-rule:nonzero;"/>
            <path d="M169.98,39.329L153.247,0.659L162.972,0.659L177.554,34.912L171.865,34.912L186.667,0.659L195.559,0.659L178.826,39.329L169.98,39.329Z" style="fill:rgb(37,108,147);fill-rule:nonzero;"/>
            <path d="M199.595,39.329L199.595,0.659L206.996,0.659L223.463,27.95L219.543,27.95L235.663,0.659L243.122,0.659L243.122,39.329L234.785,39.329L234.669,13.53L236.323,13.53L223.29,35.189L219.312,35.189L206.106,13.53L207.933,13.53L207.933,39.329L199.595,39.329Z" style="fill:rgb(37,108,147);fill-rule:nonzero;"/>
        </g>
    </g>
</svg>
